# Blender v3.1.2 OBJ File: 'tiles.blend'
# www.blender.org
mtllib myfile.mtl
o X_NurbsPath.002
v 3.070711 0.070711 -1.000000
v 3.000000 0.100000 -1.000000
v 2.929289 0.070711 -1.000000
v 2.900000 0.000000 -1.000000
v 2.929289 -0.070711 -1.000000
v 3.000000 -0.100000 -1.000000
v 3.070711 -0.070711 -1.000000
v 3.100000 -0.000000 -1.000000
v 3.070711 0.070711 1.000000
v 3.000000 0.100000 1.000000
v 2.929289 0.070711 1.000000
v 2.900000 0.000000 1.000000
v 2.929289 -0.070711 1.000000
v 3.000000 -0.100000 1.000000
v 3.070711 -0.070711 1.000000
v 3.100000 -0.000000 1.000000
v 2.000000 0.070711 -0.070711
v 2.000000 0.100000 -0.000000
v 2.000000 0.070711 0.070711
v 2.000000 0.000000 0.100000
v 2.000000 -0.070711 0.070711
v 2.000000 -0.100000 0.000000
v 2.000000 -0.070711 -0.070711
v 2.000000 -0.000000 -0.100000
v 4.000000 0.070711 -0.070711
v 4.000000 0.100000 -0.000000
v 4.000000 0.070711 0.070711
v 4.000000 0.000000 0.100000
v 4.000000 -0.070711 0.070711
v 4.000000 -0.100000 0.000000
v 4.000000 -0.070711 -0.070711
v 4.000000 -0.000000 -0.100000
vt 0.000000 1.000000
vt 1.000000 1.000000
vt 1.000000 0.875000
vt 0.000000 0.875000
vt 0.000000 0.125000
vt 1.000000 0.125000
vt 1.000000 0.000000
vt 0.000000 0.000000
vt 0.000000 0.250000
vt 1.000000 0.250000
vt 0.000000 0.375000
vt 1.000000 0.375000
vt 0.000000 0.500000
vt 1.000000 0.500000
vt 0.000000 0.625000
vt 1.000000 0.625000
vt 0.000000 0.750000
vt 1.000000 0.750000
vt 0.000000 1.000000
vt 1.000000 1.000000
vt 1.000000 0.875000
vt 0.000000 0.875000
vt 0.000000 0.125000
vt 1.000000 0.125000
vt 1.000000 0.000000
vt 0.000000 0.000000
vt 0.000000 0.250000
vt 1.000000 0.250000
vt 0.000000 0.375000
vt 1.000000 0.375000
vt 0.000000 0.500000
vt 1.000000 0.500000
vt 0.000000 0.625000
vt 1.000000 0.625000
vt 0.000000 0.750000
vt 1.000000 0.750000
vn 0.7071 0.7071 0.0000
vn 1.0000 0.0000 0.0000
vn 0.0000 1.0000 0.0000
vn -0.7071 0.7071 0.0000
vn -1.0000 0.0000 0.0000
vn -0.7071 -0.7071 0.0000
vn -0.0000 -1.0000 0.0000
vn 0.7071 -0.7071 0.0000
vn 0.0000 0.7071 -0.7071
vn 0.0000 -0.0000 -1.0000
vn 0.0000 0.7071 0.7071
vn 0.0000 0.0000 1.0000
vn 0.0000 -0.7071 0.7071
vn 0.0000 -0.7071 -0.7071
usemtl None
s 1
f 1/1/1 9/2/1 16/3/2 8/4/2
f 2/5/3 10/6/3 9/7/1 1/8/1
f 3/9/4 11/10/4 10/6/3 2/5/3
f 4/11/5 12/12/5 11/10/4 3/9/4
f 5/13/6 13/14/6 12/12/5 4/11/5
f 6/15/7 14/16/7 13/14/6 5/13/6
f 7/17/8 15/18/8 14/16/7 6/15/7
f 8/4/2 16/3/2 15/18/8 7/17/8
f 17/19/9 25/20/9 32/21/10 24/22/10
f 18/23/3 26/24/3 25/25/9 17/26/9
f 19/27/11 27/28/11 26/24/3 18/23/3
f 20/29/12 28/30/12 27/28/11 19/27/11
f 21/31/13 29/32/13 28/30/12 20/29/12
f 22/33/7 30/34/7 29/32/13 21/31/13
f 23/35/14 31/36/14 30/34/7 22/33/7
f 24/22/10 32/21/10 31/36/14 23/35/14
